REM GENRE "Progressive Rock"
REM DATE 2000
REM DISCID EFBBBF
REM COMMENT "The file contains a BOM"
CATALOG 0000000000000
PERFORMER "BOM Artist"
TITLE "BOM title"
FILE "BOM test.mp3" MP3
  TRACK 01 AUDIO
    TITLE "BOM title 1"
    PERFORMER "BOM Artist"
    ISRC GBBNB0007401
    INDEX 01 00:00:00
  TRACK 02 AUDIO
    TITLE "BOM title 2"
    PERFORMER "BOM Artist"
    ISRC GBBNB0007402
    INDEX 01 12:54:72
  TRACK 03 AUDIO
    TITLE "BOM title 3"
    PERFORMER "BOM Artist"
    ISRC GBBNB0007403
    INDEX 01 30:19:66
  TRACK 04 AUDIO
    TITLE "BOM title 4"
    PERFORMER "BOM Artist"
    ISRC GBBNB0007404
    INDEX 01 49:43:72
